<?xml version="1.0" encoding="UTF-8"?>
<svg width="490px" height="490px" viewBox="0 0 490 490" version="1.1" xmlns="http://www.w3.org/2000/svg" xmlns:xlink="http://www.w3.org/1999/xlink">
    <title>arbitrum</title>
    <g id="Page-1" stroke="none" stroke-width="1" fill="none" fill-rule="evenodd">
        <g id="arbitrum" transform="translate(0.800000, 0.900000)">
            <g id="Group" transform="translate(28.000000, 0.100000)" fill-rule="nonzero">
                <path d="M16.4,148.6 L16.4,340.3 C16.4,352.5 22.9,363.8 33.5,369.9 L199.5,465.7 C210.1,471.8 223.1,471.8 233.7,465.7 L399.7,369.9 C410.3,363.8 416.8,352.5 416.8,340.3 L416.8,148.6 C416.8,136.4 410.3,125.1 399.7,119 L233.7,23.2 C223.1,17.1 210.1,17.1 199.5,23.2 L33.5,119 C23,125.1 16.4,136.4 16.4,148.6 Z" id="Path" fill="#213147"></path>
                <g transform="translate(228.675000, 169.700000)" fill="#12AAFF" id="Path">
                    <path d="M24.225,111.9 L0.525,176.8 C-0.175,178.6 -0.175,180.6 0.525,182.4 L41.225,294.1 L88.325,266.9 L31.825,111.9 C30.525,108.3 25.525,108.3 24.225,111.9 Z"></path>
                    <path d="M71.625,2.7 C70.325,-0.9 65.325,-0.9 64.025,2.7 L40.325,67.6 C39.625,69.4 39.625,71.4 40.325,73.2 L107.025,256.1 L154.125,228.9 L71.625,2.7 Z"></path>
                </g>
                <path d="M216.6,30.3 C217.8,30.3 218.9,30.6 220,31.2 L399.6,134.9 C401.7,136.1 403,138.3 403,140.7 L403,348.1 C403,350.5 401.7,352.7 399.6,353.9 L220,457.7 C219,458.3 217.8,458.6 216.6,458.6 C215.4,458.6 214.3,458.3 213.2,457.7 L33.7,354 C31.6,352.8 30.3,350.6 30.3,348.2 L30.3,140.7 C30.3,138.3 31.6,136.1 33.7,134.9 L213.3,31.2 C214.3,30.6 215.5,30.3 216.6,30.3 M216.6,0 C210.2,0 203.8,1.7 198.1,5 L18.5,108.7 C7.1,115.3 0,127.5 0,140.7 L0,348.1 C0,361.3 7.1,373.6 18.5,380.2 L198.1,483.9 C203.8,487.2 210.2,488.9 216.6,488.9 C223,488.9 229.4,487.2 235.1,483.9 L414.7,380.2 C426.2,373.6 433.2,361.4 433.2,348.1 L433.2,140.7 C433.2,127.5 426.1,115.2 414.7,108.6 L235.2,5 C229.4,1.7 223,0 216.6,0 L216.6,0 Z" id="Shape" fill="#9DCCED"></path>
                <polygon id="Path" fill="#213147" points="97.9 426 114.4 380.8 147.6 408.4 116.6 436.8"></polygon>
                <g transform="translate(50.800000, 125.900000)" fill="#FFFFFF" id="Path">
                    <path d="M150.7,-2.84217094e-14 L105.2,-2.84217094e-14 C101.8,-2.84217094e-14 98.7,2.1 97.6,5.3 L-1.42108547e-14,272.9 L47.1,300.1 L154.6,5.4 C155.5,2.8 153.6,-2.84217094e-14 150.7,-2.84217094e-14 Z"></path>
                    <path d="M230.4,-2.84217094e-14 L184.9,-2.84217094e-14 C181.5,-2.84217094e-14 178.4,2.1 177.3,5.3 L65.8,310.9 L112.9,338.1 L234.2,5.5 C235.2,2.8 233.2,-2.84217094e-14 230.4,-2.84217094e-14 Z"></path>
                </g>
            </g>
            <rect id="Rectangle" x="0" y="0" width="489" height="489"></rect>
        </g>
    </g>
</svg>