<svg xmlns="http://www.w3.org/2000/svg" width="648" height="648" viewBox="0 0 648 648" fill="none">
<circle fill="white" cx="324" cy="324" r="250" />
<path fill-rule="evenodd" clip-rule="evenodd" d="M647.43 323.744C647.43 502.408 502.594 647.244 323.93 647.244C145.266 647.244 0.429688 502.408 0.429688 323.744C0.429688 145.08 145.266 0.244141 323.93 0.244141C502.594 0.244141 647.43 145.08 647.43 323.744ZM232.26 452.474H169.478C156.286 452.474 149.769 452.474 145.795 449.931C141.504 447.149 138.881 442.54 138.563 437.454C138.325 432.765 141.583 427.043 148.1 415.599L303.117 142.36C309.713 130.757 313.051 124.956 317.263 122.81C321.793 120.506 327.197 120.506 331.727 122.81C335.939 124.956 339.277 130.757 345.873 142.36L377.741 197.99L377.904 198.274C385.028 210.722 388.641 217.034 390.218 223.659C391.966 230.891 391.966 238.52 390.218 245.752C388.629 252.428 385.052 258.786 377.82 271.422L296.394 415.361L296.183 415.73C289.011 428.28 285.377 434.64 280.34 439.441C274.857 444.686 268.261 448.5 261.029 450.646C254.433 452.474 247.042 452.474 232.26 452.474ZM390.806 452.481H480.768C494.04 452.481 500.715 452.481 504.689 449.859C508.98 447.077 511.682 442.388 511.921 437.302C512.151 432.768 508.963 427.267 502.716 416.489C502.503 416.121 502.286 415.748 502.066 415.368L457.006 338.281L456.493 337.414C450.161 326.705 446.963 321.298 442.86 319.208C438.33 316.903 433.006 316.903 428.476 319.208C424.343 321.353 421.005 326.996 414.409 338.36L369.508 415.447L369.354 415.713C362.781 427.059 359.496 432.729 359.733 437.382C360.051 442.468 362.673 447.157 366.965 449.938C370.859 452.481 377.534 452.481 390.806 452.481Z" fill="#E84142"/>
</svg>