<?xml version="1.0" encoding="UTF-8"?>
<svg width="368px" height="368px" viewBox="0 0 368 368" version="1.1" xmlns="http://www.w3.org/2000/svg" xmlns:xlink="http://www.w3.org/1999/xlink">
    <title>optimism-ethereum-op-logo</title>
    <g id="Page-1" stroke="none" stroke-width="1" fill="none" fill-rule="evenodd">
        <g id="optimism-ethereum-op-logo" fill-rule="nonzero">
            <circle id="Oval" fill="#FF0420" cx="184" cy="184" r="184"></circle>
            <path d="M130.147343,233 C119.230274,233 110.291465,230.435233 103.330918,225.305699 C96.4436393,220.102887 93,212.628423 93,203.028868 C93,200.977054 93.2198068,198.558845 93.6594203,195.627683 C94.831723,189.032568 96.5169082,181.118431 98.7149758,171.811991 C104.942834,146.603997 121.061997,134 146.999195,134 C154.033011,134 160.407407,135.172465 165.975845,137.590674 C171.544283,139.862324 175.940419,143.379719 179.164251,148.069578 C182.388084,152.686158 184,158.182087 184,164.557365 C184,166.46262 183.780193,168.880829 183.34058,171.811991 C181.94847,179.945966 180.336554,187.933383 178.358293,195.627683 C175.134461,208.158401 169.639291,217.611399 161.726248,223.840118 C153.886473,229.995559 143.335749,233 130.147343,233 Z M132.125604,213.214656 C137.254428,213.214656 141.577295,211.675796 145.167472,208.671355 C148.830918,205.666913 151.468599,201.050333 153.007246,194.748335 C155.132045,186.101406 156.743961,178.626943 157.842995,172.178386 C158.20934,170.273131 158.429147,168.294597 158.429147,166.242783 C158.429147,157.888971 154.10628,153.712065 145.387279,153.712065 C140.258454,153.712065 135.862319,155.250925 132.198873,158.255366 C128.608696,161.259808 126.044283,165.876388 124.505636,172.178386 C122.820451,178.333827 121.208535,185.80829 119.523349,194.748335 C119.157005,196.580311 118.937198,198.485566 118.937198,200.53738 C118.863929,209.03775 123.333333,213.214656 132.125604,213.214656 Z" id="Shape" fill="#FFFFFF"></path>
            <path d="M190.850714,232 C189.820779,232 189.085111,231.704718 188.496576,231.040335 C188.055175,230.302131 187.908041,229.490107 188.055175,228.530441 L207.108981,138.469559 C207.256114,137.436073 207.771082,136.624049 208.653884,135.959665 C209.463119,135.295282 210.345921,135 211.302289,135 L248.012131,135 C258.237918,135 266.403835,137.140791 272.583447,141.348554 C278.836627,145.630137 282,151.75723 282,159.803653 C282,162.092085 281.705733,164.528158 281.190765,167.038052 C278.910194,177.668189 274.275484,185.493151 267.21307,190.586758 C260.297789,195.680365 250.80767,198.190259 238.742712,198.190259 L220.130307,198.190259 L213.803561,228.530441 C213.58286,229.563927 213.14146,230.375951 212.258658,231.040335 C211.449423,231.704718 210.566621,232 209.610252,232 L190.850714,232 Z M239.69908,179.070776 C243.598122,179.070776 246.908628,178.037291 249.777734,175.896499 C252.720407,173.755708 254.633144,170.729072 255.589513,166.74277 C255.88378,165.192542 256.030914,163.789954 256.030914,162.608828 C256.030914,159.951294 255.221679,157.884323 253.676776,156.481735 C252.131872,155.005327 249.4099,154.267123 245.657993,154.267123 L229.105459,154.267123 L223.882215,179.070776 L239.69908,179.070776 L239.69908,179.070776 Z" id="Shape" fill="#FFFFFF"></path>
        </g>
    </g>
</svg>